<?xml version="1.0" encoding="UTF-8"?>
<svg version="1.1" xmlns="http://www.w3.org/2000/svg" width="944" height="284">
<path d="M0 0 C311.52 0 623.04 0 944 0 C944 93.72 944 187.44 944 284 C632.48 284 320.96 284 0 284 C0 190.28 0 96.56 0 0 Z " fill="#FEFEFE" transform="translate(0,0)"/>
<path d="M0 0 C4.41912828 4.53042484 8.07093077 9.48728612 11.63671875 14.703125 C12.19101563 15.47914062 12.7453125 16.25515625 13.31640625 17.0546875 C16.774044 22.26801696 18.8910411 27.75048144 20.88671875 33.640625 C21.25639771 34.73141357 21.25639771 34.73141357 21.63354492 35.84423828 C24.76363997 45.58832261 26.02835799 55.17247055 26.01171875 65.390625 C26.01010742 66.43428223 26.00849609 67.47793945 26.00683594 68.55322266 C25.80952951 81.10926187 22.74984902 92.23540484 17.63671875 103.703125 C17.05255563 105.07777268 16.46913908 106.45273802 15.88671875 107.828125 C15.26796875 109.25125 15.26796875 109.25125 14.63671875 110.703125 C13.97671875 110.703125 13.31671875 110.703125 12.63671875 110.703125 C12.37117187 111.44046875 12.105625 112.1778125 11.83203125 112.9375 C9.8813797 117.45077222 6.7469601 120.93257447 3.63671875 124.703125 C3.04890625 125.43917969 2.46109375 126.17523438 1.85546875 126.93359375 C-13.18732405 144.94032666 -35.48829327 155.00648575 -58.57446289 157.30444336 C-84.72115233 159.37405029 -107.26954625 151.29942829 -127.36328125 134.703125 C-127.99363281 134.20941406 -128.62398437 133.71570313 -129.2734375 133.20703125 C-146.22929356 119.57282353 -156.5047279 97.21328892 -159.15234375 75.89697266 C-160.89555478 57.76677092 -157.94796668 41.59427459 -151.36328125 24.703125 C-150.70328125 24.703125 -150.04328125 24.703125 -149.36328125 24.703125 C-148.99976563 23.43662109 -148.99976563 23.43662109 -148.62890625 22.14453125 C-141.3424132 2.33156712 -122.84649529 -11.49896093 -104.46728516 -20.18359375 C-67.38311114 -37.00052605 -28.82419971 -26.80938404 0 0 Z " fill="#FCFCFC" transform="translate(232.36328125,83.296875)"/>
<path d="M0 0 C4.41912828 4.53042484 8.07093077 9.48728612 11.63671875 14.703125 C12.19101563 15.47914062 12.7453125 16.25515625 13.31640625 17.0546875 C16.774044 22.26801696 18.8910411 27.75048144 20.88671875 33.640625 C21.25639771 34.73141357 21.25639771 34.73141357 21.63354492 35.84423828 C24.76363997 45.58832261 26.02835799 55.17247055 26.01171875 65.390625 C26.01010742 66.43428223 26.00849609 67.47793945 26.00683594 68.55322266 C25.80952951 81.10926187 22.74984902 92.23540484 17.63671875 103.703125 C17.05255563 105.07777268 16.46913908 106.45273802 15.88671875 107.828125 C15.26796875 109.25125 15.26796875 109.25125 14.63671875 110.703125 C13.97671875 110.703125 13.31671875 110.703125 12.63671875 110.703125 C12.37117187 111.44046875 12.105625 112.1778125 11.83203125 112.9375 C9.8813797 117.45077222 6.7469601 120.93257447 3.63671875 124.703125 C3.04890625 125.43917969 2.46109375 126.17523438 1.85546875 126.93359375 C-13.18732405 144.94032666 -35.48829327 155.00648575 -58.57446289 157.30444336 C-84.72115233 159.37405029 -107.26954625 151.29942829 -127.36328125 134.703125 C-127.99363281 134.20941406 -128.62398437 133.71570313 -129.2734375 133.20703125 C-146.22929356 119.57282353 -156.5047279 97.21328892 -159.15234375 75.89697266 C-160.89555478 57.76677092 -157.94796668 41.59427459 -151.36328125 24.703125 C-150.70328125 24.703125 -150.04328125 24.703125 -149.36328125 24.703125 C-148.99976563 23.43662109 -148.99976563 23.43662109 -148.62890625 22.14453125 C-141.3424132 2.33156712 -122.84649529 -11.49896093 -104.46728516 -20.18359375 C-67.38311114 -37.00052605 -28.82419971 -26.80938404 0 0 Z M-125.36328125 0.703125 C-126.10964844 1.34894531 -126.85601562 1.99476562 -127.625 2.66015625 C-144.55410813 18.45843987 -152.18309219 40.37174975 -153.35546875 63.0546875 C-153.40539449 86.37001023 -145.31138397 108.22102636 -129.1015625 125.13671875 C-121.69132034 132.08183872 -113.57015374 138.33616665 -104.36328125 142.703125 C-103.48671875 143.13238281 -102.61015625 143.56164062 -101.70703125 144.00390625 C-81.43939984 153.23875443 -57.00917287 153.59978208 -36.20751953 145.90576172 C-25.23696551 141.5719882 -16.15196671 135.51050767 -7.36328125 127.703125 C-6.49832031 126.93871094 -5.63335937 126.17429688 -4.7421875 125.38671875 C1.74308616 119.27328202 8.33113018 111.77696557 9.63671875 102.703125 C10.29671875 102.703125 10.95671875 102.703125 11.63671875 102.703125 C20.64696487 76.12573235 23.07320002 51.32380909 10.60546875 25.44921875 C3.77664721 12.0898224 -7.51223591 -2.59191038 -21.36328125 -9.296875 C-22.35328125 -9.296875 -23.34328125 -9.296875 -24.36328125 -9.296875 C-24.36328125 -9.956875 -24.36328125 -10.616875 -24.36328125 -11.296875 C-57.38455759 -29.47017697 -97.48424113 -23.51069866 -125.36328125 0.703125 Z " fill="#090909" transform="translate(232.36328125,83.296875)"/>
<path d="M0 0 C7.01282617 5.29363245 12.41240843 11.95443625 14.21484375 20.671875 C15.12740373 29.48742427 15.18368443 38.58023 11.21484375 46.671875 C10.93640625 47.29191406 10.65796875 47.91195312 10.37109375 48.55078125 C6.7336809 55.80992844 0.73117189 60.02724102 -6.78515625 62.671875 C-14.22506188 64.88373884 -21.78467619 64.41980318 -28.6875 60.92578125 C-36.6170899 56.18574706 -40.93749379 50.12378043 -43.89453125 41.3984375 C-46.5799504 30.16207842 -45.75845649 18.68738115 -39.78515625 8.671875 C-37.28515625 5.671875 -37.28515625 5.671875 -34.78515625 3.671875 C-34.00140625 2.970625 -33.21765625 2.269375 -32.41015625 1.546875 C-22.95542649 -5.2065034 -10.16955839 -6.02389815 0 0 Z " fill="#050505" transform="translate(734.78515625,123.328125)"/>
<path d="M0 0 C1.47875316 0.8833476 2.94093364 1.79581577 4.375 2.75 C5.73625 3.554375 5.73625 3.554375 7.125 4.375 C15.9531618 13.69361523 16.86040216 24.15000363 16.64453125 36.2890625 C16.25752615 45.42848332 12.53547566 51.19846503 6.47265625 57.83984375 C-0.12984917 63.85218109 -8.34185143 65.31346329 -17.0703125 65.13671875 C-23.45633863 64.17002672 -30.15475943 60.34796173 -34.625 55.75 C-36.53646969 52.85696479 -38.10688695 49.86447935 -39.625 46.75 C-40.223125 45.574375 -40.82125 44.39875 -41.4375 43.1875 C-44.75381075 33.58361741 -43.52586535 22.3505594 -39.1640625 13.37109375 C-30.90873023 -0.68811426 -15.62149765 -7.50764514 0 0 Z " fill="#050505" transform="translate(455.625,122.25)"/>
<path d="M0 0 C1.02478203 -0.00043808 1.02478203 -0.00043808 2.07026672 -0.00088501 C4.32667781 0.00050747 6.58275799 0.01606449 8.83911133 0.03173828 C10.40423909 0.03546871 11.96936919 0.03831554 13.53450012 0.04031372 C17.65272475 0.04794784 21.77080818 0.06759438 25.88897705 0.08972168 C30.09173675 0.1101849 34.29451928 0.11931645 38.49731445 0.12939453 C46.74282194 0.15084052 54.98821469 0.18497375 63.23364258 0.22705078 C63.23364258 0.88705078 63.23364258 1.54705078 63.23364258 2.22705078 C63.89364258 2.22705078 64.55364258 2.22705078 65.23364258 2.22705078 C65.30777023 7.44145591 65.36223362 12.65555472 65.3984375 17.87036133 C65.41352899 19.64450421 65.43400449 21.41860976 65.45996094 23.19262695 C65.49632898 25.74195565 65.51336496 28.29079137 65.52661133 30.84033203 C65.54209518 31.63417801 65.55757904 32.42802399 65.5735321 33.2459259 C65.57519988 38.69647987 65.57519988 38.69647987 64.13327026 40.93635559 C61.2800613 42.87495815 58.92347292 42.60859391 55.49902344 42.61523438 C54.47906029 42.62311981 54.47906029 42.62311981 53.43849182 42.63116455 C51.19158948 42.64436542 48.94539583 42.63562775 46.69848633 42.62548828 C45.1381466 42.62750877 43.5778078 42.63042 42.01747131 42.63418579 C38.74820968 42.63860904 35.47919399 42.63217738 32.20996094 42.61816406 C28.01413153 42.60105776 23.81887719 42.61092211 19.62306881 42.62888145 C16.40177555 42.63970733 13.1806193 42.63627877 9.95932198 42.62849808 C8.41192113 42.62649348 6.86450794 42.62896445 5.31712151 42.63593674 C3.15736668 42.64353346 0.99855176 42.63197425 -1.16113281 42.61523438 C-2.39118546 42.6128476 -3.6212381 42.61046082 -4.88856506 42.60800171 C-5.83823654 42.4822879 -6.78790802 42.3565741 -7.76635742 42.22705078 C-10.30377237 38.42092836 -10.07224429 35.32255046 -10.06713867 30.91064453 C-10.0714238 30.09837906 -10.07570892 29.28611359 -10.0801239 28.44923401 C-10.08586318 26.73366223 -10.08637041 25.01806612 -10.08203125 23.30249023 C-10.07886495 20.67080535 -10.10235621 18.04023779 -10.12768555 15.40869141 C-10.12995787 13.7426772 -10.13066235 12.07665997 -10.12963867 10.41064453 C-10.13884842 9.62104843 -10.14805817 8.83145233 -10.157547 8.01792908 C-10.13867188 5.80297852 -10.13867188 5.80297852 -9.76635742 2.22705078 C-6.10305574 -0.21515034 -4.36524701 -0.01567414 0 0 Z " fill="#151515" transform="translate(138.766357421875,144.77294921875)"/>
<path d="M0 0 C5.49303104 4.86138887 8.27470591 10.60560903 9.90234375 17.68359375 C10.05607451 20.30483355 10.11843927 22.93300552 10.08984375 25.55859375 C10.08339844 26.87601563 10.07695313 28.1934375 10.0703125 29.55078125 C9.90234375 32.68359375 9.90234375 32.68359375 8.90234375 33.68359375 C5.94529054 33.77227674 3.01169319 33.79879671 0.0546875 33.78125 C-1.27495277 33.77912758 -1.27495277 33.77912758 -2.63145447 33.77696228 C-5.47438879 33.7713459 -8.31724556 33.75879066 -11.16015625 33.74609375 C-13.08268116 33.74108086 -15.00520729 33.73651759 -16.92773438 33.73242188 C-21.65107174 33.72137116 -26.37435083 33.70409558 -31.09765625 33.68359375 C-30.65709492 35.44489648 -30.20578756 37.20351345 -29.75 38.9609375 C-29.49984131 39.94054443 -29.24968262 40.92015137 -28.99194336 41.92944336 C-27.55446471 46.35646948 -25.29027592 49.33822839 -21.2578125 51.8125 C-15.11578832 54.2893018 -8.37290347 53.07547813 -2.41015625 50.68359375 C-0.96402206 50.03586957 0.4771175 49.37611149 1.90234375 48.68359375 C3.88234375 50.33359375 5.86234375 51.98359375 7.90234375 53.68359375 C6.08712025 58.76621954 1.9383672 60.71405878 -2.72265625 62.93359375 C-11.19997826 64.81744309 -21.48835094 64.77277638 -29.25390625 60.49609375 C-36.77022311 55.3356374 -41.38915842 47.61316446 -43.09765625 38.68359375 C-43.98185132 26.89893135 -43.26683757 15.45975009 -36.09765625 5.68359375 C-27.1532806 -4.16273574 -11.66107697 -7.66547518 0 0 Z " fill="#080808" transform="translate(574.09765625,123.31640625)"/>
<path d="M0 0 C0.94875 0.598125 1.8975 1.19625 2.875 1.8125 C1.26231308 4.52474618 -0.37401874 7.18602812 -2.125 9.8125 C-2.68445313 9.5959375 -3.24390625 9.379375 -3.8203125 9.15625 C-11.94200558 6.33585497 -21.26381747 4.84268433 -29.421875 8.1484375 C-32.34327082 9.68733385 -32.34327082 9.68733385 -34.125 12.8125 C-34.75478039 18.37325561 -34.75478039 18.37325561 -32.578125 23.32421875 C-29.51708255 26.42912965 -26.42484605 27.95019606 -22.5 29.75 C-21.05869227 30.44542772 -19.61858365 31.14334614 -18.1796875 31.84375 C-17.48327148 32.18019531 -16.78685547 32.51664063 -16.06933594 32.86328125 C-7.85149068 36.87520772 -1.5731212 41.34444874 3.875 48.8125 C6.05915515 55.36496546 6.2205619 64.98720591 3.3125 71.375 C-1.0580814 78.47912525 -7.90308685 82.38006518 -15.625 85 C-26.17148587 87.35484513 -36.29746188 86.14864404 -46.125 81.8125 C-47.115 81.1525 -48.105 80.4925 -49.125 79.8125 C-48.55954163 75.85429141 -47.31597652 73.1465947 -45.125 69.8125 C-39.45012036 71.66013523 -39.45012036 71.66013523 -36.8828125 72.86328125 C-33.38862492 74.06595488 -30.37846075 74.11384906 -26.6875 74.125 C-24.77130859 74.15013672 -24.77130859 74.15013672 -22.81640625 74.17578125 C-17.57877575 73.6603319 -14.33316964 72.15128257 -10.8125 68.25 C-8.00629363 64.1965908 -7.71024955 61.78950537 -8.125 56.8125 C-12.90522639 47.78318349 -21.54507712 44.38994076 -30.2890625 40.0546875 C-36.89175547 36.6967465 -42.67770929 33.20712905 -47.0625 27.125 C-49.04509615 20.94396493 -49.23826668 14.50894155 -46.5625 8.5 C-42.71379842 1.94245619 -36.99682471 -1.92915486 -29.9296875 -4.49609375 C-19.56689468 -7.05070981 -9.20249289 -5.17180101 0 0 Z " fill="#070707" transform="translate(350.125,101.1875)"/>
<path d="M0 0 C3.63 0 7.26 0 11 0 C11.33 2.31 11.66 4.62 12 7 C12.680625 6.21625 13.36125 5.4325 14.0625 4.625 C19.68034773 -0.39520435 25.95596875 -0.39965485 33.19140625 -0.24609375 C36.81896783 0.07175935 39.07790246 0.80842685 42 3 C45.69507514 7.793611 47.12749121 11.30627113 47.11352539 17.29760742 C47.11344986 18.37850143 47.11337433 19.45939545 47.11329651 20.57304382 C47.10813522 21.73874405 47.10297394 22.90444427 47.09765625 24.10546875 C47.0962413 25.29981033 47.09482635 26.49415192 47.09336853 27.72468567 C47.0877635 31.54564908 47.07521011 35.36655425 47.0625 39.1875 C47.05748565 41.77538978 47.05292263 44.36328048 47.04882812 46.95117188 C47.03779242 53.30080375 47.02052437 59.65039199 47 66 C43.04 66 39.08 66 35 66 C34.98541748 64.47600586 34.97083496 62.95201172 34.95581055 61.38183594 C34.89786658 55.73104308 34.82063288 50.08065034 34.73754883 44.43017578 C34.70428123 41.98395274 34.67625509 39.5376526 34.65356445 37.09130859 C34.62005292 33.57616295 34.56773724 30.06172505 34.51171875 26.546875 C34.50532883 25.4519574 34.4989389 24.35703979 34.49235535 23.22894287 C34.46266411 21.69780853 34.46266411 21.69780853 34.43237305 20.13574219 C34.41571846 18.79005157 34.41571846 18.79005157 34.39872742 17.41717529 C33.92186859 14.52634982 32.97932401 13.13103988 31 11 C23.85220801 8.88051158 18.367073 12.8164635 12 16 C11.67 32.5 11.34 49 11 66 C7.37 66 3.74 66 0 66 C0 44.22 0 22.44 0 0 Z " fill="#040404" transform="translate(767,120)"/>
<path d="M0 0 C0.66 0.66 1.32 1.32 2 2 C1.66306057 5.36939433 0.11180592 7.42910583 -2 10 C-2.86625 9.67 -3.7325 9.34 -4.625 9 C-8.78562883 7.76722109 -12.09259155 7.36419718 -16.25 8.75 C-18.48248312 10.3446308 -18.99560878 11.43416024 -20 14 C-20.28878735 16.40837755 -20.49045026 18.82810468 -20.625 21.25 C-20.74875 23.4775 -20.8725 25.705 -21 28 C-15.39 28 -9.78 28 -4 28 C-4.495 32.95 -4.495 32.95 -5 38 C-10.28 38 -15.56 38 -21 38 C-21 56.15 -21 74.3 -21 93 C-24.63 93 -28.26 93 -32 93 C-32.33 74.85 -32.66 56.7 -33 38 C-36.96 37.505 -36.96 37.505 -41 37 C-41 34.03 -41 31.06 -41 28 C-38.03 28 -35.06 28 -32 28 C-32.05220703 26.28103516 -32.05220703 26.28103516 -32.10546875 24.52734375 C-32.13362703 22.99741061 -32.16092499 21.46746146 -32.1875 19.9375 C-32.21263672 19.18533203 -32.23777344 18.43316406 -32.26367188 17.65820312 C-32.34306006 11.54531254 -31.44966895 6.79484957 -27.28125 2.0390625 C-26.6934375 1.57242188 -26.105625 1.10578125 -25.5 0.625 C-24.9121875 0.14289063 -24.324375 -0.33921875 -23.71875 -0.8359375 C-16.89863364 -5.45501631 -6.96731739 -3.27343791 0 0 Z " fill="#030303" transform="translate(634,93)"/>
<path d="M0 0 C5.88344763 2.83666225 9.40599672 7.02260317 11.75 13.0625 C14.27013236 21.4443767 13.93923719 29.80661723 10.34765625 37.80078125 C7.82254853 41.92146429 4.30182566 44.84908717 0 47 C-4.95482094 47.54360446 -8.87125852 47.56437074 -13.375 45.3125 C-19.67236644 39.76482004 -22.52450567 34.19188405 -23.2890625 25.84375 C-23.48799689 18.10339393 -23.15392681 11.2605678 -18.44140625 4.89453125 C-13.04485453 -0.72640932 -7.50828697 -1.33245656 0 0 Z " fill="#FBFBFB" transform="translate(448,130)"/>
<path d="M0 0 C5.59967454 2.44349435 8.27826011 6.71917399 11 12 C12.29856962 15.89570887 12.26324136 19.62530392 12.3125 23.6875 C12.34150391 24.46544922 12.37050781 25.24339844 12.40039062 26.04492188 C12.4696907 32.43652124 11.0047436 37.83008452 6.51660156 42.56494141 C1.95660465 46.52850087 -1.80925703 47.36285234 -7.65234375 47.27734375 C-12.82669065 46.66606483 -16.05337951 44.17687953 -19.3125 40.125 C-24.04709575 31.35723008 -24.82825268 20.41065426 -22.08984375 10.80859375 C-17.42994541 0.75460087 -10.65403847 -1.40686065 0 0 Z " fill="#FCFCFC" transform="translate(725,130)"/>
<path d="M0 0 C0 6.27 0 12.54 0 19 C6.6 19 13.2 19 20 19 C20 21.97 20 24.94 20 28 C19 29 19 29 17.23413086 29.11352539 C16.48526611 29.10828857 15.73640137 29.10305176 14.96484375 29.09765625 C14.15595703 29.09443359 13.34707031 29.09121094 12.51367188 29.08789062 C11.66353516 29.07951172 10.81339844 29.07113281 9.9375 29.0625 C9.08349609 29.05798828 8.22949219 29.05347656 7.34960938 29.04882812 C5.23304337 29.03700373 3.11651315 29.01906769 1 29 C1.06886282 34.76621515 1.15682299 40.53170419 1.26245117 46.29736328 C1.29569428 48.25854436 1.32372815 50.21982098 1.34643555 52.18115234 C1.37999281 55.00139047 1.43230899 57.82075365 1.48828125 60.640625 C1.49467117 61.51680481 1.5010611 62.39298462 1.50764465 63.29571533 C1.62089946 68.12843875 1.62089946 68.12843875 3.390625 72.56054688 C4.93050998 74.19377491 4.93050998 74.19377491 7.26171875 74.390625 C8.06222656 74.34421875 8.86273437 74.2978125 9.6875 74.25 C10.49574219 74.21390625 11.30398438 74.1778125 12.13671875 74.140625 C12.75160156 74.09421875 13.36648438 74.0478125 14 74 C15.5625 76.8125 15.5625 76.8125 17 80 C16 83 16 83 13.77734375 84.1640625 C7.99870748 85.90334262 2.21935337 85.904181 -3.375 83.625 C-10.12590466 76.87409534 -11.43865297 70.11468323 -11.48828125 60.8359375 C-11.47310297 57.01422283 -11.3969727 53.19571614 -11.3125 49.375 C-11.2873841 47.39716363 -11.26457675 45.41929651 -11.24414062 43.44140625 C-11.1894103 38.62683718 -11.10332007 33.81376146 -11 29 C-13.97 29 -16.94 29 -20 29 C-20 25.7 -20 22.4 -20 19 C-17.03 19 -14.06 19 -11 19 C-11.17402344 17.69675781 -11.17402344 17.69675781 -11.3515625 16.3671875 C-11.63943789 12.6906075 -11.72641329 9.62346985 -11 6 C-8.30844495 3.29884939 -4.04610861 0 0 0 Z " fill="#060606" transform="translate(848,102)"/>
<path d="M0 0 C0 6.27 0 12.54 0 19 C6.6 19 13.2 19 20 19 C20 21.97 20 24.94 20 28 C19 29 19 29 17.23413086 29.11352539 C16.48526611 29.10828857 15.73640137 29.10305176 14.96484375 29.09765625 C14.15595703 29.09443359 13.34707031 29.09121094 12.51367188 29.08789062 C11.66353516 29.07951172 10.81339844 29.07113281 9.9375 29.0625 C9.08349609 29.05798828 8.22949219 29.05347656 7.34960938 29.04882812 C5.23304337 29.03700373 3.11651315 29.01906769 1 29 C1.06886282 34.76621515 1.15682299 40.53170419 1.26245117 46.29736328 C1.29569428 48.25854436 1.32372815 50.21982098 1.34643555 52.18115234 C1.37999281 55.00139047 1.43230899 57.82075365 1.48828125 60.640625 C1.49467117 61.51680481 1.5010611 62.39298462 1.50764465 63.29571533 C1.62089946 68.12843875 1.62089946 68.12843875 3.390625 72.56054688 C4.93050998 74.19377491 4.93050998 74.19377491 7.26171875 74.390625 C8.06222656 74.34421875 8.86273438 74.2978125 9.6875 74.25 C10.49574219 74.21390625 11.30398438 74.1778125 12.13671875 74.140625 C12.75160156 74.09421875 13.36648438 74.0478125 14 74 C15.5625 76.8125 15.5625 76.8125 17 80 C16 83 16 83 13.77734375 84.1640625 C7.99870748 85.90334262 2.21935337 85.904181 -3.375 83.625 C-10.12590466 76.87409534 -11.43865297 70.11468323 -11.48828125 60.8359375 C-11.47310297 57.01422283 -11.3969727 53.19571614 -11.3125 49.375 C-11.2873841 47.39716363 -11.26457675 45.41929651 -11.24414062 43.44140625 C-11.1894103 38.62683718 -11.10332007 33.81376146 -11 29 C-13.97 29 -16.94 29 -20 29 C-20 25.7 -20 22.4 -20 19 C-17.03 19 -14.06 19 -11 19 C-11.17402344 17.69675781 -11.17402344 17.69675781 -11.3515625 16.3671875 C-11.63943789 12.6906075 -11.72641329 9.62346985 -11 6 C-8.30844495 3.29884939 -4.04610861 0 0 0 Z " fill="#060606" transform="translate(383,102)"/>
<path d="M0 0 C1.02478203 -0.00043808 1.02478203 -0.00043808 2.07026672 -0.00088501 C4.32667781 0.00050747 6.58275799 0.01606449 8.83911133 0.03173828 C10.40423909 0.03546871 11.96936919 0.03831554 13.53450012 0.04031372 C17.65272475 0.04794784 21.77080818 0.06759438 25.88897705 0.08972168 C30.09173675 0.1101849 34.29451928 0.11931645 38.49731445 0.12939453 C46.74282194 0.15084052 54.98821469 0.18497375 63.23364258 0.22705078 C63.23364258 0.88705078 63.23364258 1.54705078 63.23364258 2.22705078 C63.89364258 2.22705078 64.55364258 2.22705078 65.23364258 2.22705078 C65.30777023 7.44145591 65.36223362 12.65555472 65.3984375 17.87036133 C65.41352899 19.64450421 65.43400449 21.41860976 65.45996094 23.19262695 C65.49632898 25.74195565 65.51336496 28.29079137 65.52661133 30.84033203 C65.54209518 31.63417801 65.55757904 32.42802399 65.5735321 33.2459259 C65.57519988 38.69647987 65.57519988 38.69647987 64.13327026 40.93635559 C61.2800613 42.87495815 58.92347292 42.60859391 55.49902344 42.61523438 C54.47906029 42.62311981 54.47906029 42.62311981 53.43849182 42.63116455 C51.19158948 42.64436542 48.94539583 42.63562775 46.69848633 42.62548828 C45.1381466 42.62750877 43.5778078 42.63042 42.01747131 42.63418579 C38.74820968 42.63860904 35.47919399 42.63217738 32.20996094 42.61816406 C28.01413153 42.60105776 23.81887719 42.61092211 19.62306881 42.62888145 C16.40177555 42.63970733 13.1806193 42.63627877 9.95932198 42.62849808 C8.41192113 42.62649348 6.86450794 42.62896445 5.31712151 42.63593674 C3.15736668 42.64353346 0.99855176 42.63197425 -1.16113281 42.61523438 C-2.39118546 42.6128476 -3.6212381 42.61046082 -4.88856506 42.60800171 C-5.83823654 42.4822879 -6.78790802 42.3565741 -7.76635742 42.22705078 C-10.30377237 38.42092836 -10.07224429 35.32255046 -10.06713867 30.91064453 C-10.0714238 30.09837906 -10.07570892 29.28611359 -10.0801239 28.44923401 C-10.08586318 26.73366223 -10.08637041 25.01806612 -10.08203125 23.30249023 C-10.07886495 20.67080535 -10.10235621 18.04023779 -10.12768555 15.40869141 C-10.12995787 13.7426772 -10.13066235 12.07665997 -10.12963867 10.41064453 C-10.13884842 9.62104843 -10.14805817 8.83145233 -10.157547 8.01792908 C-10.13867188 5.80297852 -10.13867188 5.80297852 -9.76635742 2.22705078 C-6.10305574 -0.21515034 -4.36524701 -0.01567414 0 0 Z M-1.76635742 4.22705078 C-1.86722954 6.73629232 -1.90607774 9.21741462 -1.89916992 11.72705078 C-1.90012665 12.47792969 -1.90108337 13.22880859 -1.90206909 14.00244141 C-1.9027508 15.59293705 -1.90089714 17.18343546 -1.89672852 18.77392578 C-1.89138009 21.21669733 -1.89667376 23.65928499 -1.90307617 26.10205078 C-1.90241539 27.64371786 -1.90113422 29.18538482 -1.89916992 30.72705078 C-1.90119415 31.46246094 -1.90321838 32.19787109 -1.90530396 32.95556641 C-2.19692255 36.3795142 -2.19692255 36.3795142 -0.76635742 39.22705078 C1.00810267 39.32598856 2.78650509 39.35504171 4.5637207 39.35644531 C5.70160034 39.35959747 6.83947998 39.36274963 8.01184082 39.36599731 C9.2503479 39.36397308 10.48885498 39.36194885 11.76489258 39.35986328 C13.02628052 39.36082001 14.28766846 39.36177673 15.58728027 39.36276245 C18.26061396 39.36344453 20.93385694 39.36208607 23.60717773 39.35742188 C27.04070948 39.35172459 30.47416308 39.35500379 33.90769196 39.36099434 C37.17259501 39.3654684 40.43748851 39.36233962 43.70239258 39.35986328 C44.94089966 39.36188751 46.17940674 39.36391174 47.45544434 39.36599731 C48.59332397 39.36284515 49.73120361 39.35969299 50.90356445 39.35644531 C51.91092651 39.35564972 52.91828857 39.35485413 53.95617676 39.35403442 C56.20016052 39.48274802 56.20016052 39.48274802 57.23364258 38.22705078 C57.32212001 35.70611002 57.34891559 33.21274185 57.33129883 30.69189453 C57.32988388 29.93864395 57.32846893 29.18539337 57.32701111 28.40931702 C57.32139634 25.99435518 57.30884141 23.57948477 57.29614258 21.16455078 C57.29112948 19.53108857 57.28656624 17.89762492 57.2824707 16.26416016 C57.27142212 12.25175493 57.25414764 8.23941838 57.23364258 4.22705078 C54.6469323 2.93369564 52.77817473 3.09999002 49.88183594 3.09765625 C48.2051609 3.09292801 48.2051609 3.09292801 46.49461365 3.08810425 C44.67740562 3.09114059 44.67740562 3.09114059 42.82348633 3.09423828 C41.58570938 3.09328156 40.34793243 3.09232483 39.07264709 3.09133911 C35.78012348 3.09048279 32.48764678 3.09451762 29.19512939 3.10009766 C27.1717377 3.10205021 25.14838932 3.10010305 23.125 3.09667969 C19.25364139 3.09052829 15.38234755 3.09124364 11.51098633 3.09423828 C10.29749008 3.09221405 9.08399384 3.09018982 7.83372498 3.08810425 C6.16177818 3.09283249 6.16177818 3.09283249 4.45605469 3.09765625 C2.97618324 3.09884964 2.97618324 3.09884964 1.46641541 3.10006714 C-0.7381194 2.97687415 -0.7381194 2.97687415 -1.76635742 4.22705078 Z " fill="#1D1D1D" transform="translate(138.766357421875,144.77294921875)"/>
<path d="M0 0 C3.63 0 7.26 0 11 0 C11.33 3.3 11.66 6.6 12 10 C12.7425 8.72125 13.485 7.4425 14.25 6.125 C16.11523265 2.91265488 17.4204841 1.17682714 21 0 C24.453125 -0.1953125 24.453125 -0.1953125 28.25 -0.125 C29.51328125 -0.10695313 30.7765625 -0.08890625 32.078125 -0.0703125 C33.04234375 -0.04710938 34.0065625 -0.02390625 35 0 C35 3.63 35 7.26 35 11 C33.515 10.896875 32.03 10.79375 30.5 10.6875 C23.32913122 10.69764267 19.45075779 13.65106653 14.42626953 18.46679688 C10.98651754 22.66270753 11.27089706 26.98308295 11.29296875 32.2109375 C11.27784744 33.17907379 11.26272614 34.14721008 11.24714661 35.14468384 C11.20433055 38.22169395 11.19543733 41.29772189 11.1875 44.375 C11.16435102 46.46747392 11.13898485 48.55992456 11.11132812 50.65234375 C11.04853562 55.76831577 11.01615281 60.88367673 11 66 C7.37 66 3.74 66 0 66 C0 44.22 0 22.44 0 0 Z " fill="#010101" transform="translate(649,120)"/>
<path d="M0 0 C3.63 0 7.26 0 11 0 C11.33 3.3 11.66 6.6 12 10 C12.7425 8.72125 13.485 7.4425 14.25 6.125 C16.11523265 2.91265488 17.4204841 1.17682714 21 0 C24.453125 -0.1953125 24.453125 -0.1953125 28.25 -0.125 C29.51328125 -0.10695313 30.7765625 -0.08890625 32.078125 -0.0703125 C33.04234375 -0.04710938 34.0065625 -0.02390625 35 0 C35 3.63 35 7.26 35 11 C33.515 10.896875 32.03 10.79375 30.5 10.6875 C23.32913122 10.69764267 19.45075779 13.65106653 14.42626953 18.46679688 C10.98651754 22.66270753 11.27089706 26.98308295 11.29296875 32.2109375 C11.27784744 33.17907379 11.26272614 34.14721008 11.24714661 35.14468384 C11.20433055 38.22169395 11.19543733 41.29772189 11.1875 44.375 C11.16435102 46.46747392 11.13898485 48.55992456 11.11132812 50.65234375 C11.04853562 55.76831577 11.01615281 60.88367673 11 66 C7.37 66 3.74 66 0 66 C0 44.22 0 22.44 0 0 Z " fill="#010101" transform="translate(490,120)"/>
<path d="M0 0 C3.07517423 2.6825988 4.64555466 4.23399162 5.4453125 8.21875 C5.64111556 12.13481118 5.29218047 14.47182761 3.375 17.9375 C-0.47807267 21.28358942 -3.49461339 22.02641029 -8.5625 21.9375 C-12.69431615 20.81064105 -14.32952044 19.2988277 -17 16 C-18.21762731 12.34711807 -18.39075851 9.84245864 -18 6 C-15.71061991 2.43126045 -13.88564315 0.46207469 -10.125 -1.5 C-6.05281791 -2.15154913 -3.78121718 -1.64998568 0 0 Z " fill="#121212" transform="translate(151,121)"/>
<path d="M0 0 C1.175625 0.0825 2.35125 0.165 3.5625 0.25 C5.5625 3.25 5.5625 3.25 5.5625 8.25 C12.1625 8.25 18.7625 8.25 25.5625 8.25 C25.26953125 10.95182292 24.9765625 13.65364583 24.68359375 16.35546875 C24.44001332 19.24497744 24.44001332 19.24497744 25.16015625 21.98828125 C25.35931641 23.10783203 25.35931641 23.10783203 25.5625 24.25 C24.9025 24.91 24.2425 25.57 23.5625 26.25 C20.9375 25.875 20.9375 25.875 18.5625 25.25 C18.2325 23.93 17.9025 22.61 17.5625 21.25 C14.9225 21.25 12.2825 21.25 9.5625 21.25 C9.5625 22.57 9.5625 23.89 9.5625 25.25 C7.1875 25.875 7.1875 25.875 4.5625 26.25 C3.9025 25.59 3.2425 24.93 2.5625 24.25 C2.5859375 22.078125 2.5859375 22.078125 2.9375 19.5 C3.40379502 15.71478161 3.66305932 12.07125425 3.5625 8.25 C1.891875 8.311875 1.891875 8.311875 0.1875 8.375 C-3.4375 8.25 -3.4375 8.25 -5.4375 6.25 C-4.71714206 0.34306488 -4.71714206 0.34306488 0 0 Z " fill="#E0E0E0" transform="translate(147.4375,152.75)"/>
<path d="M0 0 C3.56986793 1.36718346 4.68082803 2.526745 6.8125 5.6875 C8 9 8 9 8 17 C-1.9 17.33 -11.8 17.66 -22 18 C-20.75327562 11.76637808 -19.09050459 6.94118283 -14.375 2.5625 C-9.62425052 -0.56299308 -5.59665786 -0.47668695 0 0 Z " fill="#FAFAFA" transform="translate(564,130)"/>
<path d="M0 0 C1.67194679 -0.00472824 1.67194679 -0.00472824 3.37767029 -0.009552 C4.59116653 -0.00752777 5.80466278 -0.00550354 7.05493164 -0.00341797 C8.91016197 -0.00485306 8.91016197 -0.00485306 10.8028717 -0.00631714 C14.09831475 -0.00717444 17.39371111 -0.00313412 20.68914795 0.00244141 C22.71140037 0.00439098 24.73360935 0.00245067 26.75585938 -0.00097656 C30.62640414 -0.00713646 34.49688423 -0.00640967 38.36743164 -0.00341797 C40.18463966 -0.00645432 40.18463966 -0.00645432 42.03855896 -0.009552 C43.71523399 -0.00482376 43.71523399 -0.00482376 45.42578125 0 C46.90684608 0.00119339 46.90684608 0.00119339 48.41783142 0.00241089 C50.77758789 0.12939453 50.77758789 0.12939453 52.77758789 1.12939453 C52.80223979 5.95320255 52.82042482 10.7769742 52.83251953 15.60083008 C52.83755963 17.24308918 52.84439167 18.88534376 52.85302734 20.52758789 C52.86510715 22.88314932 52.87081928 25.23865162 52.87524414 27.59423828 C52.88040543 28.33278549 52.88556671 29.0713327 52.8908844 29.83226013 C52.89108039 31.59837541 52.83953508 33.36436599 52.77758789 35.12939453 C51.05935699 36.84762543 48.7916104 36.25693774 46.44750977 36.25878906 C45.30963013 36.26194122 44.17175049 36.26509338 42.99938965 36.26834106 C41.76088257 36.26631683 40.52237549 36.2642926 39.24633789 36.26220703 C37.98494995 36.26316376 36.72356201 36.26412048 35.4239502 36.2651062 C32.75061651 36.26578828 30.07737352 36.26442982 27.40405273 36.25976562 C23.97052098 36.25406834 20.53706739 36.25734754 17.10353851 36.26333809 C13.83863546 36.26781215 10.57374196 36.26468337 7.30883789 36.26220703 C6.07033081 36.26423126 4.83182373 36.26625549 3.55578613 36.26834106 C2.41790649 36.2651889 1.28002686 36.26203674 0.10766602 36.25878906 C-0.89969604 36.25799347 -1.90705811 36.25719788 -2.94494629 36.25637817 C-5.22241211 36.12939453 -5.22241211 36.12939453 -6.22241211 35.12939453 C-6.32328423 32.620153 -6.36213243 30.13903069 -6.35522461 27.62939453 C-6.35618134 26.87851563 -6.35713806 26.12763672 -6.35812378 25.35400391 C-6.35880549 23.76350826 -6.35695183 22.17300986 -6.3527832 20.58251953 C-6.34743478 18.13974799 -6.35272845 15.69716032 -6.35913086 13.25439453 C-6.35847008 11.71272746 -6.35718891 10.1710605 -6.35522461 8.62939453 C-6.35724884 7.89398438 -6.35927307 7.15857422 -6.36135864 6.40087891 C-6.33284968 0.27427634 -6.02980409 0.00486252 0 0 Z M-4.22241211 3.12939453 C-4.32253612 5.33590109 -4.35322391 7.5456184 -4.35522461 9.75439453 C-4.35618134 10.41648926 -4.35713806 11.07858398 -4.35812378 11.76074219 C-4.35880537 13.16292414 -4.35695253 14.56510924 -4.3527832 15.96728516 C-4.34743457 18.12035166 -4.35272881 20.27320955 -4.35913086 22.42626953 C-4.35847007 23.78564499 -4.3571889 25.14502033 -4.35522461 26.50439453 C-4.35409668 27.74962891 -4.35296875 28.99486328 -4.35180664 30.27783203 C-4.54813338 33.02844884 -4.54813338 33.02844884 -3.22241211 34.12939453 C-1.57049815 34.22807962 0.08562006 34.2573829 1.74047852 34.25878906 C2.79827515 34.26194122 3.85607178 34.26509338 4.94592285 34.26834106 C6.09693481 34.26631683 7.24794678 34.2642926 8.43383789 34.26220703 C9.60644165 34.26316376 10.77904541 34.26412048 11.98718262 34.2651062 C14.47216851 34.26578823 16.95715618 34.26393237 19.44213867 34.25976562 C23.26102677 34.25441772 27.07979724 34.25970989 30.89868164 34.26611328 C33.30623399 34.2654525 35.71378626 34.26417135 38.12133789 34.26220703 C39.84785583 34.26524338 39.84785583 34.26524338 41.60925293 34.26834106 C43.19594788 34.26361282 43.19594788 34.26361282 44.81469727 34.25878906 C45.75099976 34.25799347 46.68730225 34.25719788 47.65197754 34.25637817 C49.76191849 34.36629097 49.76191849 34.36629097 50.77758789 33.12939453 C50.86549764 30.83788036 50.88452827 28.54366929 50.87524414 26.25048828 C50.87382919 25.56382584 50.87241425 24.87716339 50.87095642 24.16969299 C50.86534268 21.96871652 50.85278796 19.76784044 50.84008789 17.56689453 C50.83507466 16.0779637 50.83051144 14.58903129 50.82641602 13.10009766 C50.81536882 9.44316378 50.79809502 5.78628895 50.77758789 2.12939453 C43.10547587 2.10412849 35.43337449 2.0865633 27.76123047 2.07446289 C25.1489217 2.06942077 22.53661578 2.06258728 19.92431641 2.05395508 C16.17878521 2.04188417 12.43329117 2.03616518 8.68774414 2.03173828 C6.92370995 2.02399635 6.92370995 2.02399635 5.1240387 2.01609802 C4.04299362 2.01602249 2.96194855 2.01594696 1.84814453 2.01586914 C0.89106094 2.01364853 -0.06602264 2.01142792 -1.05210876 2.00914001 C-3.20158834 1.88626954 -3.20158834 1.88626954 -4.22241211 3.12939453 Z " fill="#FCFCFC" transform="translate(143.222412109375,147.87060546875)"/>
<path d="M0 0 C1.33804688 0.04060547 1.33804688 0.04060547 2.703125 0.08203125 C3.37859375 0.11683594 4.0540625 0.15164062 4.75 0.1875 C4.42 1.1775 4.09 2.1675 3.75 3.1875 C9.69 4.1775 9.69 4.1775 15.75 5.1875 C15.75 9.4775 15.75 13.7675 15.75 18.1875 C10.47 18.1875 5.19 18.1875 -0.25 18.1875 C-0.25 14.8875 -0.25 11.5875 -0.25 8.1875 C-4.54 8.1875 -8.83 8.1875 -13.25 8.1875 C-13.25 11.4875 -13.25 14.7875 -13.25 18.1875 C-14.24 17.8575 -15.23 17.5275 -16.25 17.1875 C-16.25 12.8975 -16.25 8.6075 -16.25 4.1875 C-15.1775 4.084375 -14.105 3.98125 -13 3.875 C-9.34454765 3.5119446 -9.34454765 3.5119446 -7.34375 1.65625 C-4.70786034 -0.19280692 -3.18025656 -0.12553644 0 0 Z " fill="#232323" transform="translate(182.25,124.8125)"/>
<path d="M0 0 C5.28 0 10.56 0 16 0 C16 5.28 16 10.56 16 16 C13.545625 16.020625 11.09125 16.04125 8.5625 16.0625 C7.78849854 16.071604 7.01449707 16.08070801 6.21704102 16.09008789 C4.47778283 16.09724913 2.73854696 16.05024702 1 16 C0 15 0 15 -0.09765625 11.62109375 C-0.09191424 10.22652508 -0.07890228 8.83198403 -0.0625 7.4375 C-0.041875 4.983125 -0.02125 2.52875 0 0 Z " fill="#D7D7D7" transform="translate(175,153)"/>
<path d="M0 0 C5.28 0 10.56 0 16 0 C15.34 2.31 14.68 4.62 14 7 C9.71 7 5.42 7 1 7 C0.67 4.69 0.34 2.38 0 0 Z " fill="#010101" transform="translate(154,164)"/>
<path d="M0 0 C3.3 0 6.6 0 10 0 C10 3.3 10 6.6 10 10 C6.7 10 3.4 10 0 10 C0 6.7 0 3.4 0 0 Z " fill="#040404" transform="translate(178,156)"/>
<path d="M0 0 C0.99 0 1.98 0 3 0 C3 0.99 3 1.98 3 3 C3.99 3.33 4.98 3.66 6 4 C6 4.66 6 5.32 6 6 C3.69 5.67 1.38 5.34 -1 5 C-1 5.99 -1 6.98 -1 8 C-0.05125 7.95875 0.8975 7.9175 1.875 7.875 C5 8 5 8 7 10 C7.125 12.625 7.125 12.625 7 15 C5.68 15.33 4.36 15.66 3 16 C3 16.66 3 17.32 3 18 C0 18 0 18 -1.6875 16.6875 C-3 15 -3 15 -3 12 C-0.69 12.33 1.62 12.66 4 13 C4 12.01 4 11.02 4 10 C2.5459375 10.0309375 2.5459375 10.0309375 1.0625 10.0625 C-2 10 -2 10 -3 9 C-3.04080783 7.00041636 -3.04254356 4.99954746 -3 3 C-2.01 3 -1.02 3 0 3 C0 2.01 0 1.02 0 0 Z " fill="#F6F6F6" transform="translate(143,122)"/>
<path d="M0 0 C0.33 0 0.66 0 1 0 C0.979375 1.216875 0.95875 2.43375 0.9375 3.6875 C0.92377036 6.27324924 1.07091669 8.32621677 1.625 10.875 C1.74875 11.57625 1.8725 12.2775 2 13 C1.34 13.66 0.68 14.32 0 15 C-2.625 14.625 -2.625 14.625 -5 14 C-5.33 12.68 -5.66 11.36 -6 10 C-8.01822917 10.09765625 -10.03645833 10.1953125 -12.0546875 10.29296875 C-12.69664062 10.19628906 -13.33859375 10.09960938 -14 10 C-14.66 9.01 -15.32 8.02 -16 7 C-11.71 7 -7.42 7 -3 7 C-2.34 5.02 -1.68 3.04 -1 1 C-0.67 0.67 -0.34 0.34 0 0 Z " fill="#D9D9D9" transform="translate(171,164)"/>
<path d="M0 0 C2.64 0 5.28 0 8 0 C9.31626692 3.61973402 10 6.09567131 10 10 C7.03 10 4.06 10 1 10 C-0.60725635 6.78548731 -0.05748185 3.56387464 0 0 Z " fill="#050505" transform="translate(189,112)"/>
<path d="M0 0 C2.64 0 5.28 0 8 0 C8.33 3.3 8.66 6.6 9 10 C5.7 10 2.4 10 -1 10 C-0.67 6.7 -0.34 3.4 0 0 Z " fill="#030303" transform="translate(178,112)"/>
<path d="M0 0 C2.64 0 5.28 0 8 0 C8.125 7.75 8.125 7.75 7 10 C4.03 10 1.06 10 -2 10 C-1.34 6.7 -0.68 3.4 0 0 Z " fill="#020202" transform="translate(167,112)"/>
<path d="M0 0 C0.99 0 1.98 0 3 0 C3.33 2.64 3.66 5.28 4 8 C7.3 8 10.6 8 14 8 C14 8.33 14 8.66 14 9 C11.36 9 8.72 9 6 9 C6 10.65 6 12.3 6 14 C3.625 14.625 3.625 14.625 1 15 C0.34 14.34 -0.32 13.68 -1 13 C-0.9765625 10.72265625 -0.9765625 10.72265625 -0.625 8.0625 C-0.27779101 5.32116393 0 2.76815614 0 0 Z " fill="#F0F0F0" transform="translate(151,164)"/>
<path d="M0 0 C1.134375 0.020625 2.26875 0.04125 3.4375 0.0625 C4.0975 1.7125 4.7575 3.3625 5.4375 5.0625 C4.7775 5.7225 4.1175 6.3825 3.4375 7.0625 C3.4375 7.3925 3.4375 7.7225 3.4375 8.0625 C0.0625 8.1875 0.0625 8.1875 -3.5625 8.0625 C-4.2225 7.4025 -4.8825 6.7425 -5.5625 6.0625 C-4.83351201 0.08479846 -4.83351201 0.08479846 0 0 Z " fill="#E4E4E4" transform="translate(147.5625,152.9375)"/>
<path d="M0 0 C1.33804688 0.04060547 1.33804688 0.04060547 2.703125 0.08203125 C3.37859375 0.11683594 4.0540625 0.15164062 4.75 0.1875 C4.75 1.85416667 4.75 3.52083333 4.75 5.1875 C-1.85 5.1875 -8.45 5.1875 -15.25 5.1875 C-15.25 9.1475 -15.25 13.1075 -15.25 17.1875 C-15.58 17.1875 -15.91 17.1875 -16.25 17.1875 C-16.25 12.8975 -16.25 8.6075 -16.25 4.1875 C-15.1775 4.084375 -14.105 3.98125 -13 3.875 C-9.34454765 3.5119446 -9.34454765 3.5119446 -7.34375 1.65625 C-4.70786034 -0.19280692 -3.18025656 -0.12553644 0 0 Z " fill="#878787" transform="translate(182.25,124.8125)"/>
<path d="M0 0 C3.3 0 6.6 0 10 0 C10 2.31 10 4.62 10 7 C6.7 7 3.4 7 0 7 C0 4.69 0 2.38 0 0 Z " fill="#FEFEFE" transform="translate(185,133)"/>
<path d="M0 0 C2.31 0 4.62 0 7 0 C7 2.64 7 5.28 7 8 C4.69 8 2.38 8 0 8 C0 5.36 0 2.72 0 0 Z " fill="#080808" transform="translate(172,135)"/>
<path d="M0 0 C0.33 0 0.66 0 1 0 C1 1.65 1 3.3 1 5 C-0.32 5.33 -1.64 5.66 -3 6 C-3 6.66 -3 7.32 -3 8 C-6 8 -6 8 -7.6875 6.6875 C-9 5 -9 5 -9 2 C-6.69 2.33 -4.38 2.66 -2 3 C-1.67 2.34 -1.34 1.68 -1 1 C-0.67 0.67 -0.34 0.34 0 0 Z " fill="#D9D9D9" transform="translate(149,132)"/>
<path d="M0 0 C2.4375 0.8125 2.4375 0.8125 5 2 C5.33 2.99 5.66 3.98 6 5 C5.05125 4.979375 4.1025 4.95875 3.125 4.9375 C0.09333717 4.77448174 0.09333717 4.77448174 -2 6 C-1.125 1.125 -1.125 1.125 0 0 Z " fill="#7F7F7F" transform="translate(144,153)"/>
<path d="M0 0 C0.99 0 1.98 0 3 0 C3 2.64 3 5.28 3 8 C2.01 8 1.02 8 0 8 C0 5.36 0 2.72 0 0 Z " fill="#CCCCCC" transform="translate(178,171)"/>
<path d="M0 0 C0.99 0 1.98 0 3 0 C3 2.64 3 5.28 3 8 C2.01 8 1.02 8 0 8 C0 5.36 0 2.72 0 0 Z " fill="#CFCFCF" transform="translate(188,171)"/>
<path d="M0 0 C0.99 0 1.98 0 3 0 C3 2.64 3 5.28 3 8 C2.01 8 1.02 8 0 8 C0 5.36 0 2.72 0 0 Z " fill="#E1E1E1" transform="translate(183,171)"/>
<path d="M0 0 C0.625 1.875 0.625 1.875 1 4 C0.34 4.66 -0.32 5.32 -1 6 C-3.125 5.625 -3.125 5.625 -5 5 C-4.67 3.68 -4.34 2.36 -4 1 C-2.68 0.67 -1.36 0.34 0 0 Z " fill="#AAAAAA" transform="translate(172,173)"/>
<path d="M0 0 C1.32 0 2.64 0 4 0 C4 1.65 4 3.3 4 5 C2.68 4.67 1.36 4.34 0 4 C0 2.68 0 1.36 0 0 Z " fill="#B8B8B8" transform="translate(151,174)"/>
<path d="M0 0 C1.98 0 3.96 0 6 0 C6 0.99 6 1.98 6 3 C4.02 3 2.04 3 0 3 C0 2.01 0 1.02 0 0 Z " fill="#3D3D3D" transform="translate(187,135)"/>
</svg>
